{"title":"Tutti.Insieme.Inevitabilmente.2008.iTALiAN.MD.DVDRip.XviD-SiLENT","uid":5136354,"size":722495488,"categoryP":"video","categoryS":"movies","magnet":"?xt=urn:btih:2cf54b0259d640a53968b4161f03dab9ec737be0&amp;dn=Tutti.Insieme.Inevitabilmente.2008.iTALiAN.MD.DVDRip.XviD-SiLENT&amp;tr=udp%3A%2F%2Ftracker.openbittorrent.com%3A80&amp;tr=udp%3A%2F%2Fopen.demonii.com%3A1337&amp;tr=udp%3A%2F%2Ftracker.coppersurfer.tk%3A6969&amp;tr=udp%3A%2F%2Fexodus.desync.com%3A6969","seeders":0,"leechers":1,"uploader":"misafor","files":1,"time":1256507401,"description":"    General\n    Complete name                    : Tutti.Insieme.Inevitabilmente.2008.iTALiAN.MD.DVDRip.XviD-SiLENT[survivalofmisa].avi\n    Format                           : AVI\n    Format/Info                      : Audio Video Interleave\n    File size                        : 689 MiB\n    Duration                         : 1h 28mn\n    Overall bit rate                 : 1 088 Kbps\n    Writing application              : VirtualDubMod 1.5.10.2 (build 2542/release)\n    Writing library                  : VirtualDubMod build 2542/release\n\n    Video\n    ID                               : 0\n    Format                           : MPEG-4 Visual\n    Format profile                   : AdvancedSimple@L5\n    Format settings, BVOP            : Yes\n    Format settings, QPel            : No\n    Format settings, GMC             : No warppoints\n    Format settings, Matrix          : Default (H.263)\n    Codec ID                         : XVID\n    Codec ID/Hint                    : XviD\n    Duration                         : 1h 28mn\n    Bit rate                         : 955 Kbps\n    Width                            : 624 pixels\n    Height                           : 352 pixels\n    Display aspect ratio             : 16:9\n    Frame rate                       : 23.976 fps\n    Resolution                       : 24 bits\n    Colorimetry                      : 4:2:0\n    Scan type                        : Progressive\n    Bits/(Pixel*Frame)               : 0.181\n    Stream size                      : 605 MiB (88%)\n    Writing library                  : XviD 1.2.0SMP (UTC 2006-01-08)\n\n    Audio\n    ID                               : 1\n    Format                           : MPEG Audio\n    Format version                   : Version 1\n    Format profile                   : Layer 3\n    Codec ID                         : 55\n    Codec ID/Hint                    : MP3\n    Duration                         : 1h 28mn\n    Bit rate mode                    : Variable\n    Bit rate                         : 120 Kbps\n    Nominal bit rate                 : 128 Kbps\n    Channel(s)                       : 2 channels\n    Sampling rate                    : 48.0 KHz\n    Resolution                       : 16 bits\n    Stream size                      : 76.3 MiB (11%)\n    Alignment                        : Aligned on interleaves\n    Interleave, duration             : 24 ms (0.58 video frame)\n    Interleave, preload duration     : 152 ms\n    Writing library                  : LAME3.99a\n    Encoding settings                : -m j -V 4 -q 3 -lowpass 17 --abr 128\n\n","torrent":{"xt":"urn:btih:2cf54b0259d640a53968b4161f03dab9ec737be0","amp;dn":"Tutti.Insieme.Inevitabilmente.2008.iTALiAN.MD.DVDRip.XviD-SiLENT","amp;tr":["udp%3A%2F%2Ftracker.openbittorrent.com%3A80","udp%3A%2F%2Fopen.demonii.com%3A1337","udp%3A%2F%2Ftracker.coppersurfer.tk%3A6969","udp%3A%2F%2Fexodus.desync.com%3A6969"],"infoHash":"2cf54b0259d640a53968b4161f03dab9ec737be0","infoHashBuffer":{"type":"Buffer","data":[44,245,75,2,89,214,64,165,57,104,180,22,31,3,218,185,236,115,123,224]},"announce":[],"urlList":[]}}